HIERARCHY
ROOT Spine
{
    OFFSET 0.0 0.0 -0.0
    CHANNELS 6 Xposition Yposition Zposition Zrotation Xrotation Yrotation
    JOINT ShoulderCenter
    {
        OFFSET 0.0 35.180057525634766 0.0
        CHANNELS 3 Zrotation Xrotation Yrotation
        JOINT LeftShoulder
        {
            OFFSET 20.88031005859375 0.0 0.0
            CHANNELS 3 Zrotation Xrotation Yrotation
            JOINT LeftElbow
            {
                OFFSET 25.98353385925293 0.0 0.0
                CHANNELS 3 Zrotation Xrotation Yrotation
                JOINT LeftHand
                {
                    OFFSET 29.441791534423828 0.0 0.0
                    CHANNELS 3 Zrotation Xrotation Yrotation
                    End Site
                    {
                        OFFSET 11.776718139648438 0.0 0.0
                    }
                }
            }
        }
        JOINT RightShoulder
        {
            OFFSET -20.88031005859375 0.0 0.0
            CHANNELS 3 Zrotation Xrotation Yrotation
            JOINT RightElbow
            {
                OFFSET -25.98353385925293 0.0 0.0
                CHANNELS 3 Zrotation Xrotation Yrotation
                JOINT RightHand
                {
                    OFFSET -29.441791534423828 0.0 0.0
                    CHANNELS 3 Zrotation Xrotation Yrotation
                    End Site
                    {
                        OFFSET -11.776718139648438 0.0 0.0
                    }
                }
            }
        }
        End Site
        {
            OFFSET 0.0 14.072021484375 0.0
        }
    }
    JOINT LeftHip
    {
        OFFSET 12.08221076298452 -12.08221076298452 0.0
        CHANNELS 3 Zrotation Xrotation Yrotation
        JOINT LeftKnee
        {
            OFFSET 0.0 -47.02344512939453 0.0
            CHANNELS 3 Zrotation Xrotation Yrotation
            JOINT LeftFoot
            {
                OFFSET 0.0 -42.0914306640625 0.0
                CHANNELS 3 Zrotation Xrotation Yrotation
                End Site
                {
                    OFFSET 0.0 0.0 16.836570739746094
                }
            }
        }
    }
    JOINT RightHip
    {
        OFFSET -12.08221076298452 -12.08221076298452 0.0
        CHANNELS 3 Zrotation Xrotation Yrotation
        JOINT RightKnee
        {
            OFFSET 0.0 -47.02344512939453 0.0
            CHANNELS 3 Zrotation Xrotation Yrotation
            JOINT RightFoot
            {
                OFFSET 0.0 -42.0914306640625 0.0
                CHANNELS 3 Zrotation Xrotation Yrotation
                End Site
                {
                    OFFSET 0.0 0.0 16.836570739746094
                }
            }
        }
    }
}
MOTION
Frames: 8
Frame Time: 0.03333333333333333
-7.195799827575684 -4.044099807739258 -291.3587951660156 1.6006890641780605 2.321445185709942 7.116209079776751 1.0266573736636445e-07 -1.7308220418609012e-08 177.8953831661475 -69.74900371711296 -47.63839368188834 13.38153326307404 -1.074823471983914e-06 -1.574436094551059e-06 12.476018365981592 6.361109362927033e-15 3.1805546814635168e-15 3.180554681463516e-15 77.12676004047707 -37.69767873833702 -3.137797532476744 1.0793258642500992e-07 7.126395895634398e-07 -22.411345738786192 8.74652537402467e-15 -2.427648463927587e-31 -3.1805546814635168e-15 0.12497978673285619 8.265159055160469 -50.2243400507926 7.916490554625116 -8.218258826744028 11.892776544733945 0.0 0.0 -5.4355182544542534e-17 -1.976328028280963 11.252555723002285 51.90288591019704 -11.036026293272219 -8.986938672341168 -13.43948790260586 -1.2424041724466861e-17 -9.93923337957349e-17 1.4531760990457471e-15
-7.201600074768066 -4.046299934387207 -291.35430908203125 1.6107887892788673 2.3162796090189817 7.090277862856589 -3.6516734921916784e-08 -1.6273212150865765e-07 177.89677673638872 -69.738051458938 -47.67986025454185 13.396728726099955 -4.132450160288098e-06 4.74304732697506e-06 12.458775800769665 3.1805546814635168e-15 -3.1805546814635168e-15 3.1805546814635168e-15 77.14844961503957 -37.64875440238482 -3.0900226928842467 -1.749411829510635e-06 -2.8091954066568815e-06 -22.46245348295525 4.770832022195274e-15 -1.3241718894150476e-31 -3.1805546814635164e-15 0.10165326602741157 8.273841601609533 -50.20536130362968 7.9547010045198165 -8.173100263023107 11.836218914661101 -1.2234284653332692e-33 -4.969616689786744e-17 -2.821033974061756e-15 -1.982024808267348 11.2598042873669 51.9103621469857 -11.033716592182268 -8.987393476711505 -13.435864382582924 5.590818776010089e-17 -4.6349642026493104e-33 -9.4999998263419e-15
-7.208400249481201 -4.048900127410889 -291.3495178222656 1.6166105905579882 2.311484853692806 7.0648910596659595 -1.8977915638170577e-07 -5.0409490912653876e-08 177.8975675815701 -69.72995944160374 -47.72567231370363 13.410508088739443 2.339272219607143e-06 -4.414778806253938e-06 12.436941127098004 -3.1805546814635168e-15 3.1805546814635168e-15 -6.3611093629270335e-15 77.16652254476148 -37.6008500867505 -3.0430977797104752 -3.206647118139401e-06 2.4135991735065074e-06 -22.501835922644158 1.5902773407317584e-15 1.5902773407317584e-15 -3.1805546814635168e-15 0.0884177224396622 8.28078687931814 -50.19523000596972 7.97697228842187 -8.135437180078172 11.787383108542821 1.9878466759146977e-16 4.641821625696059e-33 2.67582798640705e-15 -1.9806146956459967 11.266154034512967 51.9082632114601 -11.079135040321356 -9.093031354646476 -13.604763168686421 1.2424041724466862e-17 -3.1060104311167156e-18 -2.6648598870721697e-15
-7.2158002853393555 -4.051499843597412 -291.3448181152344 1.6193002048733054 2.3084071079878132 7.036032880392512 7.717216802364584e-08 3.551451853372081e-07 177.89808302481126 -69.70756491130659 -47.82054326854609 13.435248321362216 1.4240726634532201e-06 -2.2240647385202135e-06 12.388631914939104 -4.770832022195275e-15 3.1805546814635168e-15 1.3241718894150476e-31 77.18551124239269 -37.52967020944967 -2.989952442266325 -1.9006053491818354e-06 1.2920335007769065e-07 -22.541457059802436 -4.770832022195275e-15 -1.5902773407317582e-15 -3.1805546814635168e-15 0.08277915119683266 8.28635268879266 -50.19386223993318 7.993359726103356 -8.096928726207748 11.73766848206112 0.0 0.0 2.1695482861350255e-15 -1.9748126487427768 11.268662598368564 51.89615678151118 -11.12792944706855 -9.202568601672258 -13.780604999522192 -1.2424041724466865e-17 -6.212020862233433e-18 -2.5517816948143273e-15
-7.222999572753906 -4.054300308227539 -291.3399963378906 1.6166597835065606 2.3135642416179305 7.003439700131589 -7.441129454973654e-08 2.738737691821021e-08 177.88382170575784 -69.40274549451654 -48.70529719106139 13.664727800841252 -1.9979056457408138e-06 -1.0558586202053965e-06 11.844030146739136 -7.951386703658792e-15 3.1805546814635176e-15 -6.3611093629270335e-15 77.23559818672456 -37.00374875457104 -2.8980745502250453 -1.9298197730548883e-06 3.2601829672809577e-06 -22.61007377835964 6.620859447075238e-32 -1.5902773407317582e-15 4.770832022195274e-15 0.0853593002607728 8.284112399449727 -50.20376701835308 8.012176703717275 -8.057070853586838 11.69242292993074 2.2165169718754688e-33 1.4908850069360232e-16 -1.7036467214675181e-15 -1.9627787043020433 11.26088540012595 51.86883426859617 -11.14027799184218 -9.218418393243612 -13.803964594332342 -8.696829207126804e-17 -2.0499668845370319e-16 -4.963598794576456e-15
-7.232099533081055 -4.057300090789795 -291.3346862792969 1.6048339700586016 2.338041932797926 6.960762875595679 2.858798579918592e-07 1.349113957836222e-07 177.8672832006411 -68.7870974514607 -50.38230354736209 14.138043429023389 8.493081391707725e-06 -4.860210600351893e-06 11.16922152830849 6.361109362927033e-15 -3.1805546814635168e-15 -9.541664044390549e-15 77.28600502011089 -36.37131296187983 -2.792350691836686 -1.9903997343187878e-06 1.4667259745529387e-06 -22.621270968443046 1.5902773407317582e-15 -2.2069531490250793e-32 -1.5902773407317582e-15 0.10075191806038773 8.26323949943167 -50.21902928978711 8.041634720907242 -8.034121807887285 11.68432792748271 1.987846675914698e-16 -5.917447011515609e-33 -3.411175955973933e-15 -1.936015042100241 11.228042663036213 51.80509940033644 -11.152416855686049 -9.254344247393494 -13.857796951582126 -3.727212517340059e-17 2.651308900668042e-34 -8.151336125161931e-16
-7.244800090789795 -4.060199737548828 -291.3258056640625 1.5796124536168008 2.4620214163547764 6.865938396656542 5.956792180913626e-08 -4.8524635553588546e-08 177.87123018619846 -68.15157441010986 -51.7748200519989 14.659919440377953 -3.4645572908917344e-06 -1.6454166592617484e-06 10.346786164097644 7.951386703658792e-15 -3.1805546814635168e-15 -3.1805546814635164e-15 77.3363925407796 -35.057004400774794 -2.7183697345376974 -3.9134879293453736e-07 2.6337954792790147e-06 -22.582719877931165 3.1805546814635168e-15 -1.7655625192200634e-31 -6.3611093629270335e-15 0.12512021972527884 8.138752434858887 -50.20764451347392 8.07707898429988 -7.988492533493827 11.673474069908337 3.70093003964014e-34 -4.969616689786744e-17 8.533763659493174e-16 -1.8955521685902934 11.073626097959538 51.63779324311149 -9.005356515802623 -5.898818749405089 -8.283854991581926 -1.242404172446686e-17 -7.0718408400767e-35 6.522621905345101e-16
-7.2617998123168945 -4.06279993057251 -291.30841064453125 1.5422400814689268 2.649367114984094 6.710572038679495 7.943642723763578e-08 9.916804684688687e-08 177.86307358651877 -67.51282840055823 -52.934919130577775 15.18021419157779 1.490087825019215e-06 -3.517628666957357e-06 9.190365466522804 -8.827812596100317e-32 -3.1805546814635168e-15 -3.1805546814635168e-15 77.40496215399132 -33.577215572145086 -2.617660536670568 -1.0209157785883335e-07 1.99100176915844e-06 -22.573963655385267 8.348956038841732e-15 -7.951386703658792e-16 -7.951386703658791e-16 0.16408162236715262 7.946692417546644 -50.14120503523649 8.101242737753857 -7.958086831907636 11.71251626490073 0.0 0.0 -7.82947579423746e-15 -1.838198316183987 10.831433393121225 51.35866675376311 -8.872835848245279 -5.811941815358047 -8.15232683885544 2.2984477190263694e-16 3.975693351829396e-16 -6.0378901524389504e-15
